<?xml version="1.0" encoding="UTF-8"?>
<svg width="1440px" height="1024px" viewBox="0 0 1440 1024" version="1.1" xmlns="http://www.w3.org/2000/svg" xmlns:xlink="http://www.w3.org/1999/xlink">
    <!-- Generator: Sketch 48.2 (47327) - http://www.bohemiancoding.com/sketch -->
    <title>Looper_Group</title>
    <desc>Created with Sketch.</desc>
    <defs></defs>
    <g id="01---hello" stroke="none" stroke-width="1" fill="none" fill-rule="evenodd">
        <g id="Looper_Group" transform="translate(-415.000000, -312.000000)">
            <g id="original_Path-2_16427167-Group">
                <path d="M1057.32736,1488.51135 C1798.83913,1162.76014 2168.71624,1715.652 2061.62582,1388.66152 C1990.2322,1170.66787 2042.41378,949.349818 2218.17056,724.707375 C2159.97433,208.408668 2008.90431,0.289837975 1764.9605,100.350886 C1399.04478,250.442457 2100.83776,871.590485 1579.08256,1061.67104 C1057.32736,1251.75159 1057.32736,468.06027 751.75299,724.707375 C446.178623,981.354481 347.694223,430.335908 114.361952,768.015286 C-118.970319,1105.69466 315.81558,1814.26256 1057.32736,1488.51135 Z" id="duplicate_60_original_Path-2_16427167" stroke="#1DB954" opacity="1" transform="translate(1134.670558, 824.031096) rotate(4.111075) translate(-1134.670558, -824.031096) "></path>
                <path d="M1058.46948,1478.74081 C1789.03138,1157.77946 2153.44653,1702.54159 2047.93751,1380.35918 C1977.59816,1165.57091 2029.00917,947.507128 2202.17056,726.167834 C2144.83371,217.460797 1995.99454,12.4021521 1755.65303,110.991899 C1395.14078,258.87652 2086.57041,870.891171 1572.51994,1058.17677 C1058.46948,1245.46238 1058.46948,473.294475 757.407518,726.167834 C456.345555,979.041194 359.31547,436.124813 129.428807,768.838944 C-100.457856,1101.55307 327.907578,1799.70217 1058.46948,1478.74081 Z" id="duplicate_59_original_Path-2_16427167" stroke="#979797" opacity="0.983333333" transform="translate(1134.670558, 824.031096) rotate(3.266747) translate(-1134.670558, -824.031096) "></path>
                <path d="M1059.6116,1468.9703 C1779.22363,1152.79879 2138.17682,1689.43119 2034.2492,1372.05686 C1964.96411,1160.47396 2015.60457,945.664442 2186.17056,727.62829 C2129.69309,226.512908 1983.08476,24.5144422 1746.34557,121.632892 C1391.23678,267.310566 2072.30306,870.191858 1565.95733,1054.68252 C1059.6116,1239.17318 1059.6116,478.528669 763.062046,727.62829 C466.512488,976.727911 370.936718,441.913707 144.495662,769.6626 C-81.9453927,1097.41149 339.999576,1785.14181 1059.6116,1468.9703 Z" id="duplicate_58_original_Path-2_16427167" stroke="#979797" opacity="0.966666667" transform="translate(1134.670558, 824.031096) rotate(2.496234) translate(-1134.670558, -824.031096) "></path>
                <path d="M1060.75373,1459.1998 C1769.41588,1147.81812 2122.90711,1676.32083 2020.56088,1363.75455 C1952.33007,1155.37703 2002.19996,943.821759 2170.17056,729.088743 C2114.55247,235.565001 1970.17499,36.6267072 1737.0381,132.273862 C1387.33277,275.744595 2058.0357,869.492546 1559.39472,1051.18827 C1060.75373,1232.88399 1060.75373,483.762853 768.716574,729.088743 C476.67942,974.414633 382.557965,447.702588 159.562518,770.486255 C-63.4329294,1093.26992 352.091574,1770.58148 1060.75373,1459.1998 Z" id="duplicate_57_original_Path-2_16427167" stroke="#979797" opacity="0.95" transform="translate(1134.670558, 824.031096) rotate(1.811687) translate(-1134.670558, -824.031096) "></path>
                <path d="M1061.89585,1449.42933 C1759.60813,1142.83747 2107.6374,1663.21049 2006.87257,1355.45226 C1939.69603,1150.2801 1988.79535,941.979081 2154.17056,730.549192 C2099.41185,244.617073 1957.26521,48.7389459 1727.73064,142.91481 C1383.42877,284.178606 2043.76835,868.793236 1552.8321,1047.69402 C1061.89585,1226.59481 1061.89585,488.997025 774.371102,730.549192 C486.846352,972.10136 394.179212,453.491457 174.629373,771.309908 C-44.9204661,1089.12836 364.183572,1756.02118 1061.89585,1449.42933 Z" id="duplicate_56_original_Path-2_16427167" stroke="#979797" opacity="0.933333333" transform="translate(1134.670558, 824.031096) rotate(1.223901) translate(-1134.670558, -824.031096) "></path>
                <path d="M1063.03798,1439.65887 C1749.80038,1137.85684 2092.36769,1650.10019 1993.18426,1347.14999 C1927.06198,1145.18319 1975.39075,940.136406 2138.17056,732.009639 C2084.27124,253.669125 1944.35544,60.8511569 1718.42317,153.555733 C1379.52477,292.612597 2029.501,868.093927 1546.26949,1044.19979 C1063.03798,1220.30565 1063.03798,494.231185 780.02563,732.009639 C497.013284,969.788092 405.800459,459.280312 189.696228,772.133559 C-26.4080027,1084.9868 376.275569,1741.46091 1063.03798,1439.65887 Z" id="duplicate_55_original_Path-2_16427167" stroke="#979797" opacity="0.916666667" transform="translate(1134.670558, 824.031096) rotate(0.742148) translate(-1134.670558, -824.031096) "></path>
                <path d="M1064.1801,1429.88844 C1739.99263,1132.87621 2077.09798,1636.98991 1979.49595,1338.84774 C1914.42794,1140.08629 1961.98614,938.293737 2122.17056,733.470082 C2069.13062,262.721156 1931.44567,72.9633389 1709.11571,164.196631 C1375.62076,301.046568 2015.23365,867.39462 1539.70688,1040.70556 C1064.1801,1214.01651 1064.1801,499.465333 785.680158,733.470082 C507.180216,967.47483 417.421706,465.069154 204.763083,772.957208 C-7.89553936,1080.84526 388.367567,1726.90068 1064.1801,1429.88844 Z" id="duplicate_54_original_Path-2_16427167" stroke="#979797" opacity="0.9" transform="translate(1134.670558, 824.031096) rotate(0.374023) translate(-1134.670558, -824.031096) "></path>
                <path d="M1065.32222,1420.11804 C1730.18488,1127.89559 2061.82827,1623.87967 1965.80764,1330.54551 C1901.7939,1134.9894 1948.58153,936.451071 2106.17056,734.930521 C2053.99,271.773164 1918.53589,85.0754905 1699.80824,174.837502 C1371.71676,309.480518 2000.9663,866.695315 1533.14426,1037.21135 C1065.32222,1207.72738 1065.32222,504.699468 791.334686,734.930521 C517.347148,965.161574 429.042954,470.857981 219.829939,773.780855 C10.616924,1076.70373 400.459565,1712.34048 1065.32222,1420.11804 Z" id="duplicate_53_original_Path-2_16427167" stroke="#979797" opacity="0.883333333" transform="translate(1134.670558, 824.031096) rotate(0.125333) translate(-1134.670558, -824.031096) "></path>
                <path d="M1066.46435,1410.34766 C1720.37713,1122.91499 2046.55856,1610.76946 1952.11933,1322.2433 C1889.15985,1129.89253 1935.17693,934.608411 2090.17056,736.390956 C2038.84938,280.825147 1905.62612,97.1876101 1690.50077,185.478344 C1367.81276,317.914446 1986.69895,865.996012 1526.58165,1033.71714 C1066.46435,1201.43827 1066.46435,509.933589 796.989214,736.390956 C527.51408,962.848323 440.664201,476.646793 234.896794,774.604499 C29.1293873,1072.56221 412.551563,1697.78033 1066.46435,1410.34766 Z" id="duplicate_52_original_Path-2_16427167" stroke="#979797" opacity="0.866666667" transform="translate(1134.670558, 824.031096) rotate(0.000000) translate(-1134.670558, -824.031096) "></path>
                <path d="M1067.60647,1400.57731 C1710.56938,1117.93441 2031.28885,1597.65929 1938.43102,1313.94111 C1876.52581,1124.79566 1921.77232,932.765756 2074.17056,737.851387 C2023.70876,289.877106 1892.71634,109.299696 1681.19331,196.119158 C1363.90875,326.34835 1972.4316,865.29671 1520.01903,1030.22294 C1067.60647,1195.14917 1067.60647,515.167695 802.643742,737.851387 C537.681012,960.53508 452.285448,482.435589 249.963649,775.428142 C47.6418507,1068.42069 424.643561,1683.22021 1067.60647,1400.57731 Z" id="duplicate_51_original_Path-2_16427167" stroke="#979797" opacity="0.85" transform="translate(1134.670558, 824.031096) rotate(0.000000) translate(-1134.670558, -824.031096) "></path>
                <path d="M1068.7486,1390.80699 C1700.76163,1112.95383 2016.01914,1584.54916 1924.74271,1305.63895 C1863.89176,1119.69882 1908.36771,930.923106 2058.17056,739.311814 C2008.56814,298.929038 1879.80657,121.411746 1671.88584,206.75994 C1360.00475,334.78223 1958.16424,864.597411 1513.45642,1026.72875 C1068.7486,1188.86009 1068.7486,520.401786 808.29827,739.311814 C547.847944,958.221843 463.906695,488.224368 265.030505,776.251782 C66.154314,1064.2792 436.735559,1668.66014 1068.7486,1390.80699 Z" id="duplicate_50_original_Path-2_16427167" stroke="#979797" opacity="0.833333333" transform="translate(1134.670558, 824.031096) rotate(0.125333) translate(-1134.670558, -824.031096) "></path>
                <path d="M1069.89072,1381.03669 C1690.95388,1107.97328 2000.74943,1571.43906 1911.0544,1297.33682 C1851.25772,1114.60199 1894.96311,929.080462 2042.17056,740.772237 C1993.42752,307.980942 1866.8968,133.52376 1662.57838,217.400689 C1356.10075,343.216083 1943.89689,863.898114 1506.89381,1023.23457 C1069.89072,1182.57104 1069.89072,525.63586 813.952798,740.772237 C558.014877,955.908613 475.527942,494.013129 280.09736,777.07542 C84.6667774,1060.13771 448.827556,1654.10011 1069.89072,1381.03669 Z" id="duplicate_49_original_Path-2_16427167" stroke="#979797" opacity="0.816666667" transform="translate(1134.670558, 824.031096) rotate(0.374023) translate(-1134.670558, -824.031096) "></path>
                <path d="M1071.03284,1371.26643 C1681.14613,1102.99273 1985.47972,1558.32901 1897.36609,1289.03471 C1838.62368,1109.50518 1881.5585,927.237824 2026.17056,742.232654 C1978.2869,317.032817 1853.98702,145.635733 1653.27091,228.041404 C1352.19674,351.649909 1929.62954,863.198819 1500.33119,1019.74041 C1071.03284,1176.282 1071.03284,530.869918 819.607326,742.232654 C568.181809,953.59539 487.14919,499.801871 295.164215,777.899054 C103.179241,1055.99624 460.919554,1639.54013 1071.03284,1371.26643 Z" id="duplicate_48_original_Path-2_16427167" stroke="#979797" opacity="0.8" transform="translate(1134.670558, 824.031096) rotate(0.742148) translate(-1134.670558, -824.031096) "></path>
                <path d="M1072.17497,1361.4962 C1671.33838,1098.01221 1970.21001,1545.21901 1883.67778,1280.73263 C1825.98963,1104.40838 1868.15389,925.395192 2010.17056,743.693067 C1963.14629,326.08466 1841.07725,157.747665 1643.96345,238.682082 C1348.29274,360.083707 1915.36219,862.499526 1493.76858,1016.24625 C1072.17497,1169.99298 1072.17497,536.103958 825.261854,743.693067 C578.348741,951.282176 498.770437,505.590593 310.23107,778.722686 C121.691704,1051.85478 473.011552,1624.9802 1072.17497,1361.4962 Z" id="duplicate_47_original_Path-2_16427167" stroke="#979797" opacity="0.783333333" transform="translate(1134.670558, 824.031096) rotate(1.223901) translate(-1134.670558, -824.031096) "></path>
                <path d="M1073.31709,1351.72601 C1661.53063,1093.0317 1954.9403,1532.10905 1869.98947,1272.43058 C1813.35559,1099.3116 1854.74929,923.552567 1994.17056,745.153474 C1948.00567,335.136471 1828.16747,169.859554 1634.65598,249.322721 C1344.38874,368.517473 1901.09484,861.800236 1487.20597,1012.75211 C1073.31709,1163.70399 1073.31709,541.337979 830.916382,745.153474 C588.515673,948.96897 510.391684,511.379295 325.297926,779.546316 C140.204167,1047.71334 485.10355,1610.42032 1073.31709,1351.72601 Z" id="duplicate_46_original_Path-2_16427167" stroke="#979797" opacity="0.766666667" transform="translate(1134.670558, 824.031096) rotate(1.811687) translate(-1134.670558, -824.031096) "></path>
                <path d="M1074.45921,1341.95586 C1651.72288,1088.05122 1939.67059,1518.99914 1856.30116,1264.12856 C1800.72155,1094.21484 1841.34468,921.709949 1978.17056,746.613876 C1932.86505,344.188247 1815.2577,181.971395 1625.34851,259.96332 C1340.48473,376.951207 1886.82749,861.100949 1480.64335,1009.25799 C1074.45921,1157.41502 1074.45921,546.571979 836.57091,746.613876 C598.682605,946.655773 522.012931,517.167974 340.364781,780.369941 C158.716631,1043.57191 497.195548,1595.86049 1074.45921,1341.95586 Z" id="duplicate_45_original_Path-2_16427167" stroke="#979797" opacity="0.75" transform="translate(1134.670558, 824.031096) rotate(2.496234) translate(-1134.670558, -824.031096) "></path>
                <path d="M1075.60134,1332.18574 C1641.91513,1083.07075 1924.40088,1505.88929 1842.61285,1255.82658 C1788.0875,1089.11811 1827.94007,919.867338 1962.17056,748.074272 C1917.72443,353.239986 1802.34793,194.083188 1616.04105,270.603875 C1336.58073,385.384907 1872.56014,860.401665 1474.08074,1005.76387 C1075.60134,1151.12608 1075.60134,551.805959 842.225438,748.074272 C608.849537,944.342585 533.634178,522.956629 355.431636,781.193564 C177.229094,1039.4305 509.287545,1581.30073 1075.60134,1332.18574 Z" id="duplicate_44_original_Path-2_16427167" stroke="#979797" opacity="0.733333333" transform="translate(1134.670558, 824.031096) rotate(3.266747) translate(-1134.670558, -824.031096) "></path>
                <path d="M1076.74346,1322.41567 C1632.10738,1078.09031 1909.13117,1492.77949 1828.92454,1247.52463 C1775.45346,1084.02139 1814.53546,918.024736 1946.17056,749.534661 C1902.58381,362.291687 1789.43815,206.194928 1606.73358,281.244385 C1332.67673,393.81857 1858.29279,859.702383 1467.51812,1002.26977 C1076.74346,1144.83716 1076.74346,557.039915 847.879966,749.534661 C619.016469,942.029407 545.255426,528.74526 370.498492,782.017183 C195.741557,1035.28911 521.379543,1566.74103 1076.74346,1322.41567 Z" id="duplicate_43_original_Path-2_16427167" stroke="#979797" opacity="0.716666667" transform="translate(1134.670558, 824.031096) rotate(4.111075) translate(-1134.670558, -824.031096) "></path>
                <path d="M1077.88559,1312.64564 C1622.29963,1073.10988 1893.86146,1479.66976 1815.23623,1239.22272 C1762.81942,1078.9247 1801.13086,916.182141 1930.17056,750.995044 C1887.44319,371.343345 1776.52838,218.306612 1597.42612,291.884846 C1328.77272,402.252195 1844.02543,859.003105 1460.95551,998.77569 C1077.88559,1138.54828 1077.88559,562.273848 853.534494,750.995044 C629.183401,939.71624 556.876673,534.533864 385.565347,782.840798 C214.254021,1031.14773 533.471541,1552.1814 1077.88559,1312.64564 Z" id="duplicate_42_original_Path-2_16427167" stroke="#979797" opacity="0.7" transform="translate(1134.670558, 824.031096) rotate(5.015902) translate(-1134.670558, -824.031096) "></path>
                <path d="M1079.02771,1302.87566 C1612.49188,1068.12949 1878.59175,1466.56008 1801.54792,1230.92085 C1750.18537,1073.82803 1787.72625,914.339556 1914.17056,752.45542 C1872.30257,380.39496 1763.6186,230.418238 1588.11865,302.525254 C1324.86872,410.685779 1829.75808,858.30383 1454.3929,995.281624 C1079.02771,1132.25942 1079.02771,567.507755 859.189022,752.45542 C639.350334,937.403084 568.49792,540.32244 400.632202,783.664409 C232.766484,1027.00638 545.563539,1537.62183 1079.02771,1302.87566 Z" id="duplicate_41_original_Path-2_16427167" stroke="#979797" opacity="0.683333333" transform="translate(1134.670558, 824.031096) rotate(5.966958) translate(-1134.670558, -824.031096) "></path>
                <path d="M1080.16983,1293.10573 C1602.68413,1063.14911 1863.32204,1453.45048 1787.85961,1222.61903 C1737.55133,1068.73139 1774.32164,912.496981 1898.17056,753.915788 C1857.16196,389.446528 1750.70883,242.529801 1578.81119,313.165608 C1320.96472,419.119319 1815.49073,857.604559 1447.83028,991.787577 C1080.16983,1125.97059 1080.16983,572.741636 864.84355,753.915788 C649.517266,935.08994 580.119167,546.110986 415.699057,784.488016 C251.278947,1022.86505 557.655537,1523.06234 1080.16983,1293.10573 Z" id="duplicate_40_original_Path-2_16427167" stroke="#979797" opacity="0.666666667" transform="translate(1134.670558, 824.031096) rotate(6.949246) translate(-1134.670558, -824.031096) "></path>
                <path d="M1081.31196,1283.33585 C1592.87638,1058.16877 1848.05233,1440.34094 1774.1713,1214.31725 C1724.91728,1063.63478 1760.91704,910.654415 1882.17056,755.376148 C1842.02134,398.498045 1737.79906,254.641297 1569.50372,323.805903 C1317.06071,427.552813 1801.22338,856.905292 1441.26767,988.293549 C1081.31196,1119.68181 1081.31196,577.975487 870.498078,755.376148 C659.684198,932.776809 591.740415,551.899499 430.765913,785.311619 C269.791411,1018.72374 569.747535,1508.50294 1081.31196,1283.33585 Z" id="duplicate_39_original_Path-2_16427167" stroke="#979797" opacity="0.65" transform="translate(1134.670558, 824.031096) rotate(7.947272) translate(-1134.670558, -824.031096) "></path>
                <path d="M1082.45408,1273.56603 C1583.06863,1053.18845 1832.78262,1427.23149 1760.48299,1206.01552 C1712.28324,1058.5382 1747.51243,908.811861 1866.17056,756.8365 C1826.88072,407.54951 1724.88928,266.752722 1560.19625,334.446136 C1313.15671,435.986257 1786.95603,856.206028 1434.70506,984.799541 C1082.45408,1113.39305 1082.45408,583.209308 876.152606,756.8365 C669.85113,930.463692 603.361662,557.687979 445.832768,786.135216 C288.303874,1014.58245 581.839532,1493.94362 1082.45408,1273.56603 Z" id="duplicate_38_original_Path-2_16427167" stroke="#979797" opacity="0.633333333" transform="translate(1134.670558, 824.031096) rotate(8.945299) translate(-1134.670558, -824.031096) "></path>
                <path d="M1083.59621,1263.79628 C1573.26088,1048.20817 1817.51291,1414.12212 1746.79468,1197.71384 C1699.6492,1053.44165 1734.10782,906.969317 1850.17056,758.296842 C1811.7401,416.600917 1711.97951,278.86407 1550.88879,345.086301 C1309.25271,444.419647 1772.68868,855.50677 1428.14244,981.305555 C1083.59621,1107.10434 1083.59621,588.443095 881.807134,758.296842 C680.018062,928.150589 614.982909,563.476423 460.899623,786.958809 C306.816337,1010.44119 593.93153,1479.38439 1083.59621,1263.79628 Z" id="duplicate_37_original_Path-2_16427167" stroke="#979797" opacity="0.616666667" transform="translate(1134.670558, 824.031096) rotate(9.927586) translate(-1134.670558, -824.031096) "></path>
                <path d="M1084.73833,1254.02659 C1563.45313,1043.22792 1802.2432,1401.01283 1733.10637,1189.41221 C1687.01515,1048.34513 1720.70322,905.126787 1834.17056,759.757174 C1796.59948,425.652264 1699.06974,290.975337 1541.58132,355.726395 C1305.3487,452.852981 1758.42133,854.807516 1421.57983,977.811593 C1084.73833,1100.81567 1084.73833,593.676847 887.461662,759.757174 C690.184994,925.837501 626.604156,569.264827 475.966478,787.782395 C325.328801,1006.29996 606.023528,1464.82525 1084.73833,1254.02659 Z" id="duplicate_36_original_Path-2_16427167" stroke="#979797" opacity="0.6" transform="translate(1134.670558, 824.031096) rotate(10.878643) translate(-1134.670558, -824.031096) "></path>
                <path d="M1085.88045,1244.25697 C1553.64538,1038.2477 1786.97349,1387.90364 1719.41806,1181.11065 C1674.38111,1043.24865 1707.29861,903.28427 1818.17056,761.217496 C1781.45886,434.703545 1686.15996,303.086517 1532.27386,366.366412 C1301.4447,461.286254 1744.15397,854.108267 1415.01721,974.317656 C1085.88045,1094.52705 1085.88045,598.910562 893.11619,761.217496 C700.351926,923.524431 638.225403,575.05319 491.033334,788.605976 C343.841264,1002.15876 618.115526,1450.26623 1085.88045,1244.25697 Z" id="duplicate_35_original_Path-2_16427167" stroke="#979797" opacity="0.583333333" transform="translate(1134.670558, 824.031096) rotate(11.783470) translate(-1134.670558, -824.031096) "></path>
                <path d="M1087.02258,1234.48742 C1543.83763,1033.26753 1771.70378,1374.79455 1705.72975,1172.80915 C1661.74707,1038.15221 1693.894,901.441767 1802.17056,762.677807 C1766.31824,443.754756 1673.25019,315.197603 1522.96639,377.006346 C1297.5407,469.719462 1729.88662,853.409023 1408.4546,970.823746 C1087.02258,1088.23847 1087.02258,604.144236 898.770718,762.677807 C710.518858,921.211378 649.846651,580.841507 506.100189,789.429551 C362.353728,998.017594 630.207524,1435.70731 1087.02258,1234.48742 Z" id="duplicate_34_original_Path-2_16427167" stroke="#979797" opacity="0.566666667" transform="translate(1134.670558, 824.031096) rotate(12.627798) translate(-1134.670558, -824.031096) "></path>
                <path d="M1088.1647,1224.71796 C1534.02988,1028.28739 1756.43407,1361.68557 1692.04144,1164.50772 C1649.11302,1033.05582 1680.4894,899.599279 1786.17056,764.138105 C1751.17762,452.805892 1660.34041,327.308587 1513.65893,387.646192 C1293.63669,478.152599 1715.61927,852.709785 1401.89199,967.329866 C1088.1647,1081.94995 1088.1647,609.377866 904.425246,764.138105 C720.68579,918.898344 661.467898,586.629777 521.167044,790.253118 C380.866191,993.87646 642.299521,1421.14852 1088.1647,1224.71796 Z" id="duplicate_33_original_Path-2_16427167" stroke="#979797" opacity="0.55" transform="translate(1134.670558, 824.031096) rotate(13.398311) translate(-1134.670558, -824.031096) "></path>
                <path d="M1089.30683,1214.94858 C1524.22213,1023.3073 1741.16435,1348.57671 1678.35313,1156.20636 C1636.47898,1027.95947 1667.08479,897.756808 1770.17056,765.598391 C1736.03701,461.856946 1647.43064,339.419463 1504.35146,398.285942 C1289.73269,486.585661 1701.35192,852.010554 1395.32937,963.836016 C1089.30683,1075.66148 1089.30683,614.611449 910.079774,765.598391 C730.852723,916.585332 673.089145,592.417994 536.2339,791.076679 C399.378654,989.735363 654.391519,1406.58986 1089.30683,1214.94858 Z" id="duplicate_32_original_Path-2_16427167" stroke="#979797" opacity="0.533333333" transform="translate(1134.670558, 824.031096) rotate(14.082858) translate(-1134.670558, -824.031096) "></path>
                <path d="M1090.44895,1205.1793 C1514.41438,1018.32726 1725.89464,1335.46798 1664.66482,1147.90509 C1623.84494,1022.86316 1653.68018,895.914355 1754.17056,767.058662 C1720.89639,470.907912 1634.52087,351.530221 1495.04399,408.925589 C1285.82869,495.018641 1687.08457,851.311329 1388.76676,960.342201 C1090.44895,1069.37307 1090.44895,619.844982 915.734302,767.058662 C741.019655,914.272342 684.710392,598.206156 551.300755,791.900231 C417.891118,985.594306 666.483517,1392.03134 1090.44895,1205.1793 Z" id="duplicate_31_original_Path-2_16427167" stroke="#979797" opacity="0.516666667" transform="translate(1134.670558, 824.031096) rotate(14.670643) translate(-1134.670558, -824.031096) "></path>
                <path d="M1091.59107,1195.41012 C1504.60663,1013.34727 1710.62493,1322.35938 1650.97651,1139.6039 C1611.21089,1017.76692 1640.27557,894.071921 1738.17056,768.518918 C1705.75577,479.958784 1621.61109,363.640853 1485.73653,419.565125 C1281.92468,503.451532 1672.81722,850.612111 1382.20415,956.848422 C1091.59107,1063.08473 1091.59107,625.07846 921.38883,768.518918 C751.186587,911.959376 696.331639,603.994256 566.36761,792.723774 C436.403581,981.453293 678.575515,1377.47297 1091.59107,1195.41012 Z" id="duplicate_30_original_Path-2_16427167" stroke="#979797" opacity="0.5" transform="translate(1134.670558, 824.031096) rotate(15.152397) translate(-1134.670558, -824.031096) "></path>
                <path d="M1092.7332,1185.64105 C1494.79888,1008.36734 1695.35522,1309.25093 1637.2882,1131.30281 C1598.57685,1012.67072 1626.87097,892.229508 1722.17056,769.979157 C1690.61515,489.009552 1608.70132,375.751346 1476.42906,430.204539 C1278.02068,511.884328 1658.54987,849.912902 1375.64153,953.354683 C1092.7332,1056.79646 1092.7332,630.311878 927.043358,769.979157 C761.353519,909.646436 707.952887,609.782291 581.434465,793.547309 C454.916044,977.312326 690.667513,1362.91477 1092.7332,1185.64105 Z" id="duplicate_29_original_Path-2_16427167" stroke="#979797" opacity="0.483333333" transform="translate(1134.670558, 824.031096) rotate(15.520522) translate(-1134.670558, -824.031096) "></path>
                <path d="M1093.87532,1175.87211 C1484.99113,1003.38747 1680.08551,1296.14265 1623.59989,1123.00182 C1585.9428,1007.5746 1613.46636,890.387117 1706.17056,771.439378 C1675.47453,498.060209 1595.79154,387.86169 1467.1216,440.843822 C1274.11668,520.317019 1644.28251,849.213701 1369.07892,949.860987 C1093.87532,1050.50827 1093.87532,635.545231 932.697886,771.439378 C771.520451,907.333525 719.574134,615.570254 596.501321,794.370833 C473.428508,973.171411 702.759511,1348.35675 1093.87532,1175.87211 Z" id="duplicate_28_original_Path-2_16427167" stroke="#979797" opacity="0.466666667" transform="translate(1134.670558, 824.031096) rotate(15.769212) translate(-1134.670558, -824.031096) "></path>
                <path d="M1095.01744,1166.10329 C1475.18338,998.407666 1664.8158,1283.03454 1609.91158,1114.70094 C1573.30876,1002.47854 1600.06175,888.544752 1690.17056,772.899579 C1660.33391,507.110744 1582.88177,399.971871 1457.81413,451.482961 C1270.21267,528.749597 1630.01516,848.51451 1362.5163,946.367338 C1095.01744,1044.22017 1095.01744,640.778514 938.352414,772.899579 C781.687383,905.020645 731.195381,621.35814 611.568176,795.194346 C491.940971,969.030552 714.851508,1333.79892 1095.01744,1166.10329 Z" id="duplicate_27_original_Path-2_16427167" stroke="#979797" opacity="0.45" transform="translate(1134.670558, 824.031096) rotate(15.894545) translate(-1134.670558, -824.031096) "></path>
                <path d="M1096.15957,1156.33462 C1465.37563,993.427935 1649.54609,1269.92662 1596.22327,1106.40018 C1560.67472,997.382554 1586.65715,886.702414 1674.17056,774.35976 C1645.19329,516.161146 1569.972,412.081874 1448.50667,462.121945 C1266.30867,537.182051 1615.74781,847.815329 1355.95369,942.873741 C1096.15957,1037.93215 1096.15957,646.01172 944.006942,774.35976 C791.854315,902.707799 742.816628,627.14594 626.635031,796.017847 C510.453434,964.889753 726.943506,1319.24131 1096.15957,1156.33462 Z" id="duplicate_26_original_Path-2_16427167" stroke="#979797" opacity="0.433333333" transform="translate(1134.670558, 824.031096) rotate(15.894545) translate(-1134.670558, -824.031096) "></path>
                <path d="M1097.30169,1146.56611 C1455.56788,988.448284 1634.27638,1256.81891 1582.53496,1098.09956 C1548.04067,992.286652 1573.25254,884.860105 1658.17056,775.819916 C1630.05267,525.211402 1557.06222,424.191683 1439.1992,472.760757 C1262.40467,545.614369 1601.48046,847.116159 1349.39108,939.380199 C1097.30169,1031.64424 1097.30169,651.244842 949.66147,775.819916 C802.021247,900.39499 754.437875,632.933647 641.701887,796.841334 C528.965898,960.749021 739.035504,1304.68393 1097.30169,1146.56611 Z" id="duplicate_25_original_Path-2_16427167" stroke="#979797" opacity="0.416666667" transform="translate(1134.670558, 824.031096) rotate(15.769212) translate(-1134.670558, -824.031096) "></path>
                <path d="M1098.44382,1136.79776 C1445.76013,983.468722 1619.00667,1243.71144 1568.84665,1089.79908 C1535.40663,987.19084 1559.84793,883.017829 1642.17056,777.280047 C1614.91206,534.261499 1544.15245,436.301277 1429.89173,483.399382 C1258.50066,554.046539 1587.21311,846.417001 1342.82846,935.88672 C1098.44382,1025.35644 1098.44382,656.477872 955.315998,777.280047 C812.18818,898.082222 766.059123,638.721253 656.768742,797.664807 C547.478361,956.608362 751.127502,1290.12681 1098.44382,1136.79776 Z" id="duplicate_24_original_Path-2_16427167" stroke="#979797" opacity="0.4" transform="translate(1134.670558, 824.031096) rotate(15.520522) translate(-1134.670558, -824.031096) "></path>
                <path d="M1099.58594,1127.02961 C1435.95238,978.489255 1603.73696,1230.60422 1555.15834,1081.49876 C1522.77259,982.095126 1546.44333,881.175588 1626.17056,778.740149 C1599.77144,543.31142 1531.24267,448.410637 1420.58427,494.0378 C1254.59666,562.478544 1572.94576,845.717857 1336.26585,932.393308 C1099.58594,1019.06876 1099.58594,661.7108 960.970526,778.740149 C822.355112,895.769499 777.68037,644.508745 671.835597,798.488264 C565.990824,952.467784 763.2195,1275.56997 1099.58594,1127.02961 Z" id="duplicate_23_original_Path-2_16427167" stroke="#979797" opacity="0.383333333" transform="translate(1134.670558, 824.031096) rotate(15.152397) translate(-1134.670558, -824.031096) "></path>
                <path d="M1100.72806,1117.26167 C1426.14463,973.509896 1588.46725,1217.49728 1541.47003,1073.19863 C1510.13854,976.999522 1533.03872,879.333387 1610.17056,780.200221 C1584.63082,552.361147 1518.3329,460.519736 1411.2768,504.675989 C1250.69266,570.910369 1558.67841,845.018728 1329.70324,928.899971 C1100.72806,1012.78121 1100.72806,666.943615 966.625054,780.200221 C832.522044,893.456826 789.301617,650.296114 686.902452,799.311704 C584.503288,948.327294 775.311497,1261.01344 1100.72806,1117.26167 Z" id="duplicate_22_original_Path-2_16427167" stroke="#979797" opacity="0.366666667" transform="translate(1134.670558, 824.031096) rotate(14.670643) translate(-1134.670558, -824.031096) "></path>
                <path d="M1101.87019,1107.49396 C1416.33688,968.530655 1573.19754,1204.39065 1527.78172,1064.89869 C1497.5045,971.90404 1519.63411,877.49123 1594.17056,781.660257 C1569.4902,561.410658 1505.42313,472.628548 1401.96934,515.313926 C1246.78865,579.341993 1544.41105,844.319616 1323.14062,925.406717 C1101.87019,1006.49382 1101.87019,672.176307 972.279582,781.660257 C842.688976,891.144207 800.922864,656.083345 701.969308,800.135124 C603.015751,944.186903 787.403495,1246.45726 1101.87019,1107.49396 Z" id="duplicate_21_original_Path-2_16427167" stroke="#979797" opacity="0.35" transform="translate(1134.670558, 824.031096) rotate(14.082858) translate(-1134.670558, -824.031096) "></path>
                <path d="M1103.01231,1097.72651 C1406.52913,963.551546 1557.92783,1191.28437 1514.09341,1056.59896 C1484.87046,966.808692 1506.22951,875.649122 1578.17056,783.120255 C1554.34958,570.45993 1492.51335,484.737039 1392.66187,525.951581 C1242.88465,587.773394 1530.1437,843.620522 1316.57801,921.913556 C1103.01231,1000.20659 1103.01231,677.408859 977.93411,783.120255 C852.855908,888.83165 812.544112,661.870422 717.036163,800.958522 C621.528214,940.046621 799.495493,1231.90147 1103.01231,1097.72651 Z" id="duplicate_20_original_Path-2_16427167" stroke="#979797" opacity="0.333333333" transform="translate(1134.670558, 824.031096) rotate(13.398311) translate(-1134.670558, -824.031096) "></path>
                <path d="M1104.15444,1087.95934 C1396.72138,958.572584 1542.65812,1178.17848 1500.4051,1048.29949 C1472.23641,961.713495 1492.8249,873.807068 1562.17056,784.580209 C1539.20896,579.508935 1479.60358,496.845172 1383.35441,536.588922 C1238.98065,596.204546 1515.87635,842.921449 1310.01539,918.420498 C1104.15444,993.919547 1104.15444,682.641258 983.588638,784.580209 C863.02284,886.519161 824.165359,667.657329 732.103018,801.781895 C640.040678,935.906462 811.587491,1217.3461 1104.15444,1087.95934 Z" id="duplicate_19_original_Path-2_16427167" stroke="#979797" opacity="0.316666667" transform="translate(1134.670558, 824.031096) rotate(12.627798) translate(-1134.670558, -824.031096) "></path>
                <path d="M1105.29656,1078.1925 C1386.91363,953.593787 1527.38841,1165.07302 1486.71679,1040.00029 C1459.60237,956.618466 1479.42029,871.965075 1546.17056,786.040116 C1524.06834,588.55764 1466.69381,508.952905 1374.04694,547.22591 C1235.07664,604.635419 1501.609,842.222399 1303.45278,914.927555 C1105.29656,987.632712 1105.29656,687.873482 989.243166,786.040116 C873.189772,884.206749 835.786606,673.444044 747.169873,802.605242 C658.553141,931.76644 823.679489,1202.79122 1105.29656,1078.1925 Z" id="duplicate_18_original_Path-2_16427167" stroke="#979797" opacity="0.3" transform="translate(1134.670558, 824.031096) rotate(11.783470) translate(-1134.670558, -824.031096) "></path>
                <path d="M1106.43868,1068.42603 C1377.10588,948.615176 1512.1187,1151.96805 1473.02848,1031.7014 C1446.96832,951.523628 1466.01568,870.123151 1530.17056,787.499967 C1508.92773,597.606007 1453.78403,521.060185 1364.73947,557.862502 C1231.17264,613.065977 1487.34165,841.523375 1296.89017,911.434743 C1106.43868,981.346111 1106.43868,693.105512 994.897694,787.499967 C883.356704,881.894423 847.407853,679.230543 762.236729,803.428558 C677.065604,927.626572 835.771487,1188.23688 1106.43868,1068.42603 Z" id="duplicate_17_original_Path-2_16427167" stroke="#979797" opacity="0.283333333" transform="translate(1134.670558, 824.031096) rotate(10.878643) translate(-1134.670558, -824.031096) "></path>
                <path d="M1107.58081,1058.65996 C1367.29813,943.636775 1496.84899,1138.86363 1459.34017,1023.40286 C1434.33428,946.429005 1452.61108,868.281305 1514.17056,788.959757 C1493.78711,606.653992 1440.87426,533.166954 1355.43201,568.498644 C1227.26864,621.496179 1473.0743,840.82438 1290.32755,907.942079 C1107.58081,975.059777 1107.58081,698.33732 1000.55222,788.959757 C893.523636,879.582194 859.0291,685.016798 777.303584,804.251839 C695.578068,923.486879 847.863484,1173.68315 1107.58081,1058.65996 Z" id="duplicate_16_original_Path-2_16427167" stroke="#979797" opacity="0.266666667" transform="translate(1134.670558, 824.031096) rotate(9.927586) translate(-1134.670558, -824.031096) "></path>
                <path d="M1108.72293,1048.89437 C1357.49038,938.658614 1481.57928,1125.75985 1445.65186,1015.10472 C1421.70024,941.334627 1439.20647,866.439547 1498.17056,790.419477 C1478.64649,615.701541 1427.96448,545.27314 1346.12454,579.134274 C1223.36463,629.925975 1458.80695,840.12542 1283.76494,904.449582 C1108.72293,968.773745 1108.72293,703.568877 1006.20675,790.419477 C903.690569,877.270077 870.650348,690.802774 792.370439,805.07508 C714.090531,919.347386 859.955482,1159.13013 1108.72293,1048.89437 Z" id="duplicate_15_original_Path-2_16427167" stroke="#979797" opacity="0.25" transform="translate(1134.670558, 824.031096) rotate(8.945299) translate(-1134.670558, -824.031096) "></path>
                <path d="M1109.86505,1039.12932 C1347.68263,933.680726 1466.30957,1112.65678 1431.96355,1006.80703 C1409.06619,936.240529 1425.80186,864.597891 1482.17056,791.879117 C1463.50587,624.748593 1415.05471,557.378661 1336.81708,589.769319 C1219.46063,638.355308 1444.5396,839.426497 1277.20233,900.957278 C1109.86505,962.488058 1109.86505,708.800146 1011.86128,791.879117 C913.857501,874.958087 882.271595,696.588432 807.437295,805.898276 C732.602994,915.20812 872.04748,1144.57791 1109.86505,1039.12932 Z" id="duplicate_14_original_Path-2_16427167" stroke="#979797" opacity="0.233333333" transform="translate(1134.670558, 824.031096) rotate(7.947272) translate(-1134.670558, -824.031096) "></path>
                <path d="M1111.00718,1029.36488 C1337.87488,928.703154 1451.03986,1099.55455 1418.27524,998.509873 C1396.43215,931.146754 1412.39726,862.756351 1466.17056,793.338664 C1448.36525,633.795071 1402.14494,569.483413 1327.50961,600.40369 C1215.55663,646.784105 1430.27224,838.727619 1270.63971,897.465195 C1111.00718,956.202771 1111.00718,714.031083 1017.51581,793.338664 C924.024433,872.646244 893.892842,702.373723 822.50415,806.72142 C751.115458,911.069117 884.139478,1130.02661 1111.00718,1029.36488 Z" id="duplicate_13_original_Path-2_16427167" stroke="#979797" opacity="0.216666667" transform="translate(1134.670558, 824.031096) rotate(6.949246) translate(-1134.670558, -824.031096) "></path>
                <path d="M1112.1493,1019.60116 C1328.06713,923.725949 1435.77015,1086.45328 1404.58692,990.213325 C1383.79811,926.053355 1398.99265,860.914947 1450.17056,794.798103 C1433.22463,642.840883 1389.23516,581.587274 1318.20215,611.037278 C1211.65262,655.212283 1416.00489,838.028793 1264.0771,893.973369 C1112.1493,949.917946 1112.1493,719.261635 1023.17033,794.798103 C934.191365,870.334571 905.514089,708.158588 837.571005,807.544503 C769.627921,906.930418 896.231476,1115.47638 1112.1493,1019.60116 Z" id="duplicate_12_original_Path-2_16427167" stroke="#979797" opacity="0.2" transform="translate(1134.670558, 824.031096) rotate(5.966958) translate(-1134.670558, -824.031096) "></path>
                <path d="M1113.29143,1009.83829 C1318.25938,918.749172 1420.50044,1073.35314 1390.89861,981.917492 C1371.16406,920.960394 1385.58804,859.073702 1434.17056,796.257417 C1418.08401,651.885916 1376.32539,593.690094 1308.89468,621.66995 C1207.74862,663.639735 1401.73754,837.330026 1257.51448,890.481844 C1113.29143,943.633662 1113.29143,724.491737 1028.82486,796.257417 C944.358297,868.023097 917.135336,713.942955 852.63786,808.367515 C788.140384,902.792076 908.323473,1100.9274 1113.29143,1009.83829 Z" id="duplicate_11_original_Path-2_16427167" stroke="#979797" opacity="0.183333333" transform="translate(1134.670558, 824.031096) rotate(5.015902) translate(-1134.670558, -824.031096) "></path>
                <path d="M1114.43355,1000.0764 C1308.45163,913.772901 1405.23073,1060.25433 1377.2103,973.622501 C1358.53002,915.867949 1372.18344,857.232643 1418.17056,797.716583 C1402.94339,660.930031 1363.41561,605.791685 1299.58722,632.301543 C1203.84462,672.066331 1387.47019,836.631331 1250.95187,886.990674 C1114.43355,937.350016 1114.43355,729.721308 1034.47939,797.716583 C954.525229,865.711858 928.756584,719.726735 867.704716,809.190444 C806.652848,898.654154 920.415471,1086.3799 1114.43355,1000.0764 Z" id="duplicate_10_original_Path-2_16427167" stroke="#979797" opacity="0.166666667" transform="translate(1134.670558, 824.031096) rotate(4.111075) translate(-1134.670558, -824.031096) "></path>
                <path d="M1115.57567,990.315694 C1298.64388,908.797231 1389.96102,1047.1571 1363.52199,965.328513 C1345.89597,910.776121 1358.77883,855.391807 1402.17056,799.175572 C1387.80278,669.973053 1350.50584,617.891812 1290.27975,642.931851 C1199.94061,680.491908 1373.20284,835.93272 1244.38926,883.499925 C1115.57567,931.06713 1115.57567,734.950247 1040.13392,799.175572 C964.692161,863.400898 940.377831,725.509815 882.771571,810.013273 C825.165311,894.516732 932.507469,1071.83416 1115.57567,990.315694 Z" id="duplicate_9_original_Path-2_16427167" stroke="#979797" opacity="0.15" transform="translate(1134.670558, 824.031096) rotate(3.266747) translate(-1134.670558, -824.031096) "></path>
                <path d="M1116.7178,980.55641 C1288.83613,903.822285 1374.69131,1034.06178 1349.83368,957.035732 C1333.26193,905.685034 1345.37422,853.551239 1386.17056,800.634349 C1372.66216,679.014758 1337.59607,629.990178 1280.97228,653.56061 C1196.03661,688.916259 1358.93549,835.234211 1237.82664,880.009685 C1116.7178,924.785158 1116.7178,740.178424 1045.78845,800.634349 C974.859093,861.090275 951.999078,731.292054 897.838426,810.835983 C843.677774,890.379912 944.599467,1057.29053 1116.7178,980.55641 Z" id="duplicate_8_original_Path-2_16427167" stroke="#979797" opacity="0.133333333" transform="translate(1134.670558, 824.031096) rotate(2.496234) translate(-1134.670558, -824.031096) "></path>
                <path d="M1117.85992,970.798857 C1279.02838,898.848222 1359.4216,1020.96878 1336.14537,948.744423 C1320.62789,900.59485 1331.96962,851.710998 1370.17056,802.092867 C1357.52154,688.054858 1324.68629,642.086397 1271.66482,664.187484 C1192.13261,697.339115 1344.66814,834.535825 1231.26403,876.520063 C1117.85992,918.504302 1117.85992,745.405673 1051.44297,802.092867 C985.026026,858.780061 963.620325,737.073266 912.905282,811.658547 C862.190238,886.243827 956.691465,1042.74949 1117.85992,970.798857 Z" id="duplicate_7_original_Path-2_16427167" stroke="#979797" opacity="0.116666667" transform="translate(1134.670558, 824.031096) rotate(1.811687) translate(-1134.670558, -824.031096) "></path>
                <path d="M1119.00205,961.043444 C1269.22063,893.875251 1344.15189,1007.87866 1322.45706,940.454933 C1307.99384,895.505783 1318.56501,849.87116 1354.17056,803.551065 C1342.38092,697.092976 1311.77652,654.179964 1262.35735,674.812028 C1188.2286,705.760123 1330.40078,833.837593 1224.70142,873.031208 C1119.00205,912.224822 1119.00205,750.631777 1057.0975,803.551065 C995.192958,856.470354 975.241572,742.853211 927.972137,812.48093 C880.702701,882.108648 968.783463,1028.21164 1119.00205,961.043444 Z" id="duplicate_6_original_Path-2_16427167" stroke="#979797" opacity="0.1" transform="translate(1134.670558, 824.031096) rotate(1.223901) translate(-1134.670558, -824.031096) "></path>
                <path d="M1120.14417,951.290719 C1259.41288,888.903649 1328.88218,994.792139 1308.76875,932.167726 C1295.3598,890.418118 1305.1604,848.03183 1338.17056,805.008862 C1327.2403,706.128604 1298.86674,666.270198 1253.04989,685.433643 C1184.3246,714.178812 1316.13343,833.139554 1218.1388,869.543313 C1120.14417,905.947073 1120.14417,755.85644 1062.75203,805.008862 C1005.35989,854.161284 986.86282,748.631563 943.038992,813.303086 C899.215164,877.97461 980.87546,1013.67779 1120.14417,951.290719 Z" id="duplicate_5_original_Path-2_16427167" stroke="#979797" opacity="0.0833333333" transform="translate(1134.670558, 824.031096) rotate(0.742148) translate(-1134.670558, -824.031096) "></path>
                <path d="M1121.28629,941.541435 C1249.60513,883.933801 1313.61247,981.710236 1295.08044,923.883443 C1282.72576,885.332247 1291.75579,846.193148 1322.17056,806.466144 C1312.09968,715.161044 1285.95697,678.356167 1243.74242,696.051512 C1180.4206,722.59453 1301.86608,832.44176 1211.57619,866.056649 C1121.28629,899.671539 1121.28629,761.07926 1068.40656,806.466144 C1015.52682,851.853028 998.484067,754.407876 958.105847,814.124953 C917.727628,873.842029 992.967458,999.149069 1121.28629,941.541435 Z" id="duplicate_4_original_Path-2_16427167" stroke="#979797" opacity="0.0666666667" transform="translate(1134.670558, 824.031096) rotate(0.374023) translate(-1134.670558, -824.031096) "></path>
                <path d="M1122.42842,931.796653 C1239.79738,878.966248 1298.34276,968.634375 1281.39213,915.602985 C1270.09171,880.248726 1278.35119,844.355315 1306.17056,807.922753 C1296.95906,724.189313 1273.0472,690.436554 1234.43496,706.664478 C1176.51659,731.006362 1287.59873,831.744289 1205.01357,862.571596 C1122.42842,893.398902 1122.42842,766.299668 1074.06109,807.922753 C1025.69375,849.545838 1010.10531,760.181523 973.172703,814.94644 C936.240091,869.711357 1005.05946,984.627058 1122.42842,931.796653 Z" id="duplicate_3_original_Path-2_16427167" stroke="#979797" opacity="0.05" transform="translate(1134.670558, 824.031096) rotate(0.125333) translate(-1134.670558, -824.031096) "></path>
                <path d="M1123.57054,921.938218 C1229.98963,873.940759 1283.07305,955.406011 1267.70382,907.225953 C1257.45767,875.105915 1264.94658,842.496047 1290.17056,809.396351 C1281.81845,733.322878 1260.13742,702.657836 1225.12749,717.401222 C1172.61259,739.516301 1273.33138,831.038683 1198.45096,859.045896 C1123.57054,887.053108 1123.57054,771.580962 1079.71561,809.396351 C1035.86069,847.21174 1021.72656,766.022507 988.239558,815.777508 C954.752554,865.532509 1017.15145,969.935676 1123.57054,921.938218 Z" id="duplicate_2_original_Path-2_16427167" stroke="#979797" opacity="0.0333333333"></path>
                <path d="M1124.70049,911.999183 C1220.28643,868.874183 1267.96612,942.069496 1254.16143,898.780433 C1244.9583,869.921058 1251.68487,840.621579 1274.34112,810.881996 C1266.83922,742.531117 1247.36527,714.979033 1215.91924,728.225746 C1168.7502,748.095815 1259.21612,830.327308 1191.9583,855.491371 C1124.70049,880.655433 1124.70049,776.905433 1085.30987,810.881996 C1045.91924,844.858558 1033.22393,771.911244 1003.1458,816.61537 C973.067678,861.319496 1029.11455,955.124183 1124.70049,911.999183 Z" id="duplicate_1_original_Path-2_16427167" stroke="#979797" opacity="0.0166666667"></path>
            </g>
        </g>
    </g>
</svg>